<?xml version="1.0" encoding="UTF-8" standalone="no" ?>
<!DOCTYPE svg PUBLIC "-//W3C//DTD SVG 1.1//EN" "http://www.w3.org/Graphics/SVG/1.1/DTD/svg11.dtd">
<svg xmlns="http://www.w3.org/2000/svg" xmlns:xlink="http://www.w3.org/1999/xlink" version="1.1" width="1080" height="1080" viewBox="0 0 1080 1080" xml:space="preserve">
<desc>Created with Fabric.js 5.2.4</desc>
<defs>
</defs>
<rect x="0" y="0" width="100%" height="100%" fill="transparent"></rect>
<g transform="matrix(1 0 0 1 540 540)" id="bff669a9-aaf2-4f99-b82f-4ecc9abe82ee"  >
<rect style="stroke: none; stroke-width: 1; stroke-dasharray: none; stroke-linecap: butt; stroke-dashoffset: 0; stroke-linejoin: miter; stroke-miterlimit: 4; fill: rgb(255,255,255); fill-rule: nonzero; opacity: 1; visibility: hidden;" vector-effect="non-scaling-stroke"  x="-540" y="-540" rx="0" ry="0" width="1080" height="1080" />
</g>
<g transform="matrix(1 0 0 1 540 540)" id="2833c82f-173f-4a2b-b424-a4f5f8d1f418"  >
</g>
<g transform="matrix(0 0 0 0 0 0)"  >
<g style=""   >
</g>
</g>
<g transform="matrix(0 0 0 0 0 0)"  >
<g style=""   >
</g>
</g>
<g transform="matrix(1 0 0 1 540 540)"  >
<g style="" vector-effect="non-scaling-stroke"   >
		<g transform="matrix(1 0 0 1 -16.89 0)"  >
<path style="stroke: none; stroke-width: 1; stroke-dasharray: none; stroke-linecap: butt; stroke-dashoffset: 0; stroke-linejoin: miter; stroke-miterlimit: 4; fill: rgb(255,255,255); fill-rule: nonzero; opacity: 1;" vector-effect="non-scaling-stroke"  transform=" translate(-31.59, -48.47)" d="M 61.168 83.92 L 11.364 83.92 L 11.364 13.025 L 61.17 13.025 C 62.274 13.025 63.17 12.129 63.17 11.025 L 63.17 3.66 C 63.17 2.556 62.274 1.6600000000000001 61.17 1.6600000000000001 L 2 1.6600000000000001 C 0.8959999999999999 1.6600000000000001 0 2.556 0 3.66 L 0 93.283 C 0 94.387 0.896 95.283 2 95.283 L 61.168 95.283 C 62.272999999999996 95.283 63.168 94.387 63.168 93.283 L 63.168 85.92 C 63.168 84.814 62.274 83.92 61.168 83.92 z" stroke-linecap="round" />
</g>
		<g transform="matrix(1 0 0 1 8.87 0.01)"  >
<path style="stroke: none; stroke-width: 1; stroke-dasharray: none; stroke-linecap: butt; stroke-dashoffset: 0; stroke-linejoin: miter; stroke-miterlimit: 4; fill: rgb(255,255,255); fill-rule: nonzero; opacity: 1;" vector-effect="non-scaling-stroke"  transform=" translate(-57.34, -48.48)" d="M 96.355 47.058 L 69.433 20.137999999999998 C 68.683 19.386999999999997 67.355 19.387999999999998 66.605 20.137999999999998 L 60.218 26.525999999999996 C 59.437000000000005 27.306999999999995 59.437000000000005 28.572999999999997 60.218 29.353999999999996 L 72.378 41.516 L 19.737 41.516 C 18.633 41.516 17.737 42.412 17.737 43.516 L 17.737 53.428 C 17.737 54.532 18.633 55.428 19.737 55.428 L 72.381 55.428 L 60.221 67.59 C 59.44 68.37100000000001 59.44 69.637 60.221 70.418 L 66.60799999999999 76.807 C 66.98299999999999 77.182 67.493 77.393 68.02199999999999 77.393 C 68.553 77.393 69.06099999999999 77.182 69.43599999999999 76.807 L 96.35799999999999 49.887 C 96.73299999999999 49.512 96.94399999999999 49.002 96.94399999999999 48.473 C 96.943 47.941 96.73 47.433 96.355 47.058 z" stroke-linecap="round" />
</g>
</g>
</g>
</svg>