<?xml version="1.0" encoding="UTF-8" standalone="no" ?>
<!DOCTYPE svg PUBLIC "-//W3C//DTD SVG 1.1//EN" "http://www.w3.org/Graphics/SVG/1.1/DTD/svg11.dtd">
<svg xmlns="http://www.w3.org/2000/svg" xmlns:xlink="http://www.w3.org/1999/xlink" version="1.1" width="1080" height="1080" viewBox="0 0 1080 1080" xml:space="preserve">
<desc>Created with Fabric.js 5.2.4</desc>
<defs>
</defs>
<g transform="matrix(1 0 0 1 540 540)" id="2833c82f-173f-4a2b-b424-a4f5f8d1f418"  >
</g>
<g transform="matrix(1 0 0 1 540 540)" id="bff669a9-aaf2-4f99-b82f-4ecc9abe82ee"  >
<rect style="stroke: none; stroke-width: 1; stroke-dasharray: none; stroke-linecap: butt; stroke-dashoffset: 0; stroke-linejoin: miter; stroke-miterlimit: 4; fill: rgb(255,255,255); fill-rule: nonzero; opacity: 1; visibility: hidden;" vector-effect="non-scaling-stroke"  x="-540" y="-540" rx="0" ry="0" width="1080" height="1080" />
</g>
<g transform="matrix(NaN NaN NaN NaN 0 0)"  >
<g style=""   >
</g>
</g>
<g transform="matrix(NaN NaN NaN NaN 0 0)"  >
<g style=""   >
</g>
</g>
<g transform="matrix(1 0 0 1 540 540)" id="1cae28bf-a457-46e6-810d-af1a8dda121c"  >
<path style="stroke: rgb(0,0,0); stroke-opacity: 0; stroke-width: 0; stroke-dasharray: none; stroke-linecap: butt; stroke-dashoffset: 0; stroke-linejoin: miter; stroke-miterlimit: 4; fill: rgb(255,255,255); fill-rule: nonzero; opacity: 1;" vector-effect="non-scaling-stroke"  transform=" translate(-256, -256)" d="M 403.914 0 L 54.044 349.871 L 0 512 L 162.128 457.956 L 512 108.086 L 403.914 0 z M 295.829 151.319 L 317.446 172.93599999999998 L 110.638 379.745 L 89.021 358.128 L 295.829 151.319 z M 71.532 455.932 L 56.068999999999996 440.469 L 74.084 386.426 L 125.575 437.917 L 71.532 455.932 z M 153.871 422.979 L 132.25400000000002 401.36199999999997 L 339.063 194.55299999999997 L 360.68 216.16999999999996 L 153.871 422.979 z M 382.297 194.555 L 317.44500000000005 129.703 L 339.06200000000007 108.086 L 403.9140000000001 172.938 L 382.297 194.555 z M 360.679 86.468 L 403.91299999999995 43.233000000000004 L 468.76599999999996 108.086 L 425.53099999999995 151.32 L 360.679 86.468 z" stroke-linecap="round" />
</g>
</svg>